<svg width="134" height="60" viewBox="0 0 134 60" fill="none" xmlns="http://www.w3.org/2000/svg">
<path d="M96.986 16.5857C96.8482 17.5224 97.1512 18.459 97.7573 19.1202C98.0604 19.4508 98.4461 19.7263 98.8868 19.8916L102.634 21.3241C102.165 22.2333 101.697 23.1975 101.256 24.2168L100.981 24.8229L101.752 25.6769L100.154 27.137L107.703 35.3191L109.273 33.859L110.017 34.6579L110.65 34.4375C111.725 34.0794 112.744 33.7213 113.708 33.308L114.838 37.1924C114.976 37.6608 115.223 38.074 115.527 38.4046C116.133 39.0658 117.042 39.4515 117.978 39.3964L119.907 39.2586C121.45 39.1484 122.634 37.9087 122.717 36.366L123.075 27.9084C127.593 24.2168 130.1 20.0844 131.533 16.6683C134.122 10.3871 133.626 5.1528 133.599 4.93241L133.516 4.16103L132.745 4.02329C132.524 3.96819 127.345 3.03152 120.871 5.0426C117.317 6.14457 112.964 8.2934 108.887 12.4809L100.43 12.1227C98.8868 12.0676 97.5645 13.1696 97.3165 14.6848L96.986 16.5857ZM130.982 11.434L125.995 6.00682C128.502 5.70378 130.486 5.81398 131.533 5.95173C131.56 6.99859 131.505 8.98213 130.982 11.434ZM118.364 9.23007C117.51 9.20252 116.711 9.28517 115.94 9.47802C118.832 7.74242 121.67 6.80575 124.149 6.30986L130.541 13.2522C129.825 15.7317 128.612 18.5141 126.574 21.269C126.849 20.4426 127.042 19.5885 127.07 18.6794C127.262 13.693 123.378 9.45047 118.364 9.23007ZM118.061 25.3463L117.951 25.3739C117.868 25.4014 117.786 25.4014 117.73 25.4014C117.648 25.4014 117.593 25.3739 117.483 25.3463C117.455 25.3463 117.455 25.3188 117.427 25.3188L111.945 21.8476C111.725 21.7098 111.615 21.4894 111.615 21.2415L111.89 14.8225C111.89 14.7399 111.918 14.6848 111.945 14.6022L111.973 14.5471C112 14.4644 112.055 14.4093 112.11 14.3542C112.166 14.2991 112.193 14.2716 112.248 14.244L117.923 11.2687C118.144 11.1585 118.392 11.1585 118.612 11.2963L124.067 14.7399L124.094 14.7675C124.122 14.7675 124.122 14.795 124.149 14.795L124.204 14.8501C124.232 14.9052 124.26 14.9327 124.315 14.9878L124.342 15.098C124.342 15.1531 124.37 15.1807 124.37 15.2358V15.2909L124.094 21.7649C124.094 22.0129 123.929 22.2333 123.736 22.3435L118.061 25.3463ZM115.664 32.4815C117.62 31.5724 119.356 30.5531 120.899 29.5062L120.623 36.2833C120.596 36.7517 120.237 37.1373 119.742 37.1924L117.841 37.3302C117.4 37.3577 116.987 37.0822 116.876 36.6415L115.664 32.4815ZM113.515 31.1592L104.81 21.6823C106.298 18.8998 107.923 16.5857 109.659 14.6848C109.218 15.7041 108.942 16.7785 108.915 17.9356C108.694 22.9495 112.606 27.1921 117.62 27.385C118.805 27.4401 119.962 27.2472 121.009 26.8615C118.915 28.4594 116.463 29.9195 113.515 31.1592ZM104.865 25.9799L103.46 24.4372C103.653 24.024 103.846 23.6107 104.039 23.1975L111.945 31.7928C111.532 31.9581 111.091 32.1234 110.65 32.2887L109.3 30.801L107.785 32.1785L103.35 27.3574L104.865 25.9799ZM99.0521 16.9163L99.3552 15.0154C99.4378 14.5471 99.8511 14.2165 100.319 14.244L107.069 14.5195C105.884 15.9521 104.727 17.605 103.653 19.4784L99.6582 17.9356C99.245 17.7703 98.997 17.3571 99.0521 16.9163ZM117.29 18.6794L113.185 16.0898L112.992 20.9109L117.097 23.5005L117.29 18.6794ZM119.631 16.6959L115.554 14.1063L113.929 14.9603L118.033 17.5499L119.631 16.6959ZM121.036 15.9521L122.304 15.2909L118.199 12.7013L116.932 13.3624L121.036 15.9521ZM120.017 18.0458L118.667 18.7345L118.474 23.5556L122.744 21.3241L122.937 16.503L121.587 17.2193L121.532 18.3764L119.962 19.1753L120.017 18.0458Z" fill="#F8B73D"/>
<path d="M0.371094 34.4942C12.9886 43.613 30.7302 49.7013 50.5656 50.5278C72.6325 51.4645 92.6607 45.7067 106.242 35.8992L99.4102 28.4609C85.8561 39.3428 64.7534 45.872 41.3642 44.8802C25.9642 44.2466 11.8315 40.4448 0.371094 34.4942ZM100.457 35.238C100.457 34.935 100.705 34.7146 101.008 34.7421C101.311 34.7421 101.532 34.9901 101.504 35.2931C101.504 35.5962 101.256 35.8166 100.953 35.789C100.677 35.7615 100.43 35.5135 100.457 35.238ZM98.0879 33.3371C97.9777 33.2269 97.6471 33.0892 97.3441 33.0065C97.2339 32.979 97.2614 32.8413 97.3441 32.8137C97.6471 32.7586 97.9777 32.6484 98.1154 32.5382C98.2532 32.428 98.3634 32.0974 98.446 31.7944C98.4736 31.6842 98.6113 31.7117 98.6389 31.7944C98.694 32.0974 98.8042 32.428 98.9144 32.5658C99.0246 32.676 99.3551 32.8137 99.6306 32.8964C99.7408 32.9239 99.7408 33.0616 99.6306 33.0892C99.3551 33.1443 98.997 33.2545 98.8868 33.3647C98.7766 33.4749 98.6389 33.8055 98.5562 34.081C98.5287 34.1912 98.3909 34.1912 98.3634 34.081C98.2807 33.8055 98.1981 33.4749 98.0879 33.3371ZM94.5616 37.4144C94.9473 37.3318 95.4156 37.2216 95.5809 37.0563C95.7462 36.891 95.9115 36.4502 96.0217 36.0645C96.0492 35.9268 96.2696 35.9268 96.2972 36.0645C96.3798 36.4502 96.5176 36.9185 96.6553 37.0838C96.8206 37.2491 97.2614 37.4144 97.6471 37.5246C97.7848 37.5522 97.7848 37.7725 97.6471 37.8001C97.2614 37.8827 96.7931 37.9929 96.6278 38.1582C96.4625 38.3235 96.2972 38.7643 96.187 39.15C96.1594 39.2877 95.9391 39.2877 95.9115 39.15C95.8289 38.7643 95.7187 38.296 95.5534 38.1307C95.3881 37.9654 94.9473 37.8001 94.5616 37.6899C94.3963 37.6348 94.4238 37.442 94.5616 37.4144ZM91.118 37.2767C91.118 36.9736 91.3659 36.7532 91.6689 36.7808C91.972 36.7808 92.1924 37.0287 92.1648 37.3318C92.1648 37.6348 91.9169 37.8552 91.6138 37.8276C91.3383 37.8001 91.0904 37.5522 91.118 37.2767Z" fill="#F8B73D"/>
<path d="M42.1642 9.09786L32.9628 9.07031C31.668 9.07031 30.6211 10.1172 30.6211 11.412V29.925C30.6211 31.2198 31.668 32.2667 32.9628 32.2667H41.1724C41.3102 32.2667 41.4755 32.2942 41.6132 32.2942C41.7785 32.2942 41.9713 32.2667 42.1366 32.2667C44.6436 32.1289 46.9026 30.9994 48.528 29.0159C50.1534 27.0323 51.1452 24.2223 51.1452 20.6685C51.2003 13.5884 47.1781 9.37335 42.1642 9.09786ZM39.6297 27.9966H35.8279V13.3404H39.4093C39.4919 13.3404 39.547 13.3404 39.6297 13.3404C42.9631 13.3404 45.6905 16.0402 45.6905 20.6685C45.6905 25.3243 42.9907 27.9966 39.6297 27.9966Z" fill="white"/>
<path d="M66.3237 10.5818C65.9931 9.64514 65.1115 9.03906 64.1198 9.03906H61.2822C60.2904 9.03906 59.4089 9.64514 59.0783 10.5818L51.1992 32.2354H56.8743L58.7477 27.0837H66.6818L68.5552 32.2354H74.2303L66.3237 10.5818ZM60.1802 23.0891L61.8607 18.4609L62.6872 15.5131L63.4861 18.3782L65.1942 23.0891H60.1802Z" fill="white"/>
<path d="M90.6524 9.07031L83.5447 24.1121V32.2667H78.3379V24.1121L71.2578 9.07031H76.9054L79.9082 15.4066L80.9551 18.3268L81.9744 15.4342L84.9773 9.07031H90.6524Z" fill="white"/>
<path d="M54.5627 38.5686C44.8103 38.5686 35.5538 37.4116 27.2615 35.2903C25.3606 34.8219 23.4873 34.271 21.6966 33.6924C17.9499 32.4803 14.4512 31.0753 11.2279 29.4774C12.0268 27.9622 14.0379 25.2348 19.1621 21.5433C24.1209 18.1823 27.3166 15.207 27.3166 10.0277C27.3166 4.43524 22.3578 0.495714 14.9195 0.220222C5.77319 -0.110367 0.593955 4.46279 0.593955 4.46279L3.81721 9.0084C7.26085 6.74937 10.2086 6.28103 12.385 6.28103C14.5614 6.28103 18.2805 7.07996 18.2805 10.4134C18.2805 13.4989 16.2419 15.0968 11.7238 18.4027C5.82829 22.6728 3.04583 26.3644 1.72347 28.8713C0.896996 30.4416 0.676602 31.5436 0.593955 32.0395C0.566406 32.2323 0.566406 32.315 0.566406 32.315C1.97141 33.0588 3.43152 33.7475 4.94672 34.4087C6.51702 35.0974 8.16997 35.7586 9.87801 36.3647C20.1263 40.0563 32.4132 42.2051 45.6368 42.2051C62.3867 42.2051 77.6489 38.7615 89.1369 33.0863C79.1365 36.5851 67.2629 38.5686 54.5627 38.5686Z" fill="white"/>
<path d="M13.7905 45.1797L17.2892 46.7224L16.9586 47.4938L14.5068 46.4194L13.8456 47.9071L16.1046 48.8988L15.774 49.6702L13.515 48.6784L12.5508 50.9099L11.5039 50.4416L13.7905 45.1797Z" fill="white"/>
<path d="M16.4067 52.5653L15.3047 52.1521L19.1891 47.4688L20.539 47.9922L20.3186 54.053L19.2167 53.6398L19.2718 52.1246L17.3709 51.4083L16.4067 52.5653ZM19.2993 51.243L19.4095 48.9013L17.9219 50.692L19.2993 51.243Z" fill="white"/>
<path d="M21.1973 52.5688L22.2717 52.927C22.2166 53.1473 22.2441 53.3677 22.3268 53.6157C22.4094 53.8636 22.6574 54.0565 23.0155 54.1942C23.291 54.2769 23.5389 54.2769 23.7318 54.1942C23.9522 54.1116 24.0899 53.9463 24.1726 53.6983C24.2277 53.533 24.2001 53.3402 24.1175 53.1474C24.0348 52.927 23.7593 52.7066 23.3461 52.4035C22.7676 52.0454 22.3819 51.6872 22.189 51.3567C21.9962 51.0261 21.9962 50.6404 22.1339 50.1996C22.2992 49.7037 22.5747 49.3731 22.988 49.2078C23.4012 49.0425 23.9246 49.0701 24.5858 49.2905C25.247 49.5109 25.6602 49.7864 25.8531 50.172C26.0459 50.5302 26.0735 50.9985 25.9357 51.5219L24.8613 51.1638C24.9164 50.8883 24.9164 50.6404 24.8338 50.4751C24.7511 50.2822 24.5583 50.172 24.2828 50.0618C24.0073 49.9792 23.7869 49.9516 23.6216 50.0343C23.4563 50.0894 23.3185 50.2547 23.2634 50.4751C23.2359 50.5853 23.2359 50.723 23.291 50.8608C23.3461 50.9985 23.5114 51.1363 23.7869 51.3291C24.5858 51.7974 25.0817 52.2382 25.2745 52.6515C25.4674 53.0647 25.4949 53.5055 25.3296 53.9738C25.1643 54.4973 24.8613 54.8554 24.4481 55.0482C24.0348 55.2411 23.4563 55.2135 22.7676 54.9931C21.9962 54.7452 21.5003 54.3871 21.3075 53.9738C21.1146 53.533 21.0871 53.0647 21.1973 52.5688Z" fill="white"/>
<path d="M26.7907 50.1172L31.4465 51.3844L31.2261 52.1834L29.463 51.715L28.1682 56.4535L27.0662 56.1504L28.361 51.412L26.5703 50.9161L26.7907 50.1172Z" fill="white"/>
<path d="M30.9523 55.9844L32.0818 56.2599L31.889 57.1414C31.8063 57.5271 31.641 57.8026 31.4206 57.9679C31.2002 58.1332 30.9523 58.2434 30.6768 58.271L30.5391 57.7751C30.7319 57.7475 30.8972 57.6924 31.0349 57.5822C31.1727 57.4996 31.2553 57.3894 31.2829 57.2516L30.6768 57.1139L30.9523 55.9844Z" fill="white"/>
<path d="M39.1875 56.7302L40.2895 56.923C40.0966 57.6118 39.766 58.0801 39.3252 58.3556C38.8845 58.6311 38.3335 58.7137 37.6723 58.6035C36.8734 58.4658 36.2948 58.1077 35.9642 57.5016C35.6337 56.8955 35.551 56.1517 35.6888 55.2701C35.854 54.3059 36.1846 53.6171 36.6805 53.1764C37.204 52.7356 37.8376 52.5978 38.6365 52.708C39.2426 52.8182 39.7109 53.0386 40.014 53.3968C40.3446 53.7549 40.5098 54.2232 40.5098 54.8018L39.3803 54.6089C39.4079 54.3885 39.3252 54.1681 39.1875 53.9477C39.0222 53.7273 38.8018 53.5896 38.4988 53.5345C38.0855 53.4794 37.7274 53.5896 37.4243 53.8651C37.1213 54.1681 36.9285 54.6916 36.7907 55.4629C36.7081 56.0966 36.7356 56.62 36.9009 57.0608C37.0662 57.5016 37.3692 57.7495 37.7549 57.8046C38.1131 57.8597 38.4161 57.8046 38.6641 57.6118C38.9396 57.3914 39.1048 57.1159 39.1875 56.7302Z" fill="white"/>
<path d="M41.4496 53.2578L42.6067 53.368L42.3863 55.627L44.7831 55.875L45.0035 53.616L46.1605 53.7261L45.582 59.4564L44.4249 59.3462L44.7004 56.729L42.3036 56.4811L42.0282 59.0982L40.8711 58.988L41.4496 53.2578Z" fill="white"/>
<path d="M46.9585 53.75L50.7878 53.9153L50.7602 54.7418L48.088 54.6316L48.0329 56.257L50.5674 56.3672L50.5399 57.1936L48.0053 57.0834L47.9502 58.7088L50.6225 58.819L50.595 59.6455L46.7656 59.4802L46.9585 53.75Z" fill="white"/>
<path d="M52.1104 59.6484H50.9258L52.8267 53.8906H54.2868L56.2703 59.6208H55.0857L54.5898 58.1883L52.5512 58.2158L52.1104 59.6484ZM54.3419 57.3618L53.598 55.1579L52.8818 57.3618H54.3419Z" fill="white"/>
<path d="M56.543 53.8356L59.1326 53.753C59.6836 53.7254 60.1244 53.8907 60.4825 54.1938C60.8131 54.5243 61.0059 54.9651 61.0335 55.5161C61.061 56.1497 60.8957 56.6456 60.5651 56.9762C60.2345 57.3068 59.7938 57.4997 59.2703 57.4997L57.8102 57.5548L57.8929 59.5383L56.7358 59.5658L56.543 53.8356ZM57.7827 56.7283L58.7469 56.7007C59.1601 56.6732 59.4632 56.5905 59.6285 56.3701C59.7938 56.1773 59.8764 55.9294 59.8489 55.6263C59.8489 55.2957 59.7387 55.0478 59.5734 54.8549C59.4081 54.6621 59.105 54.5794 58.6918 54.5794L57.7 54.607L57.7827 56.7283Z" fill="white"/>
<path d="M63.707 53.5342L66.1314 53.3138C66.765 53.2587 67.3435 53.4516 67.8119 53.9199C68.2802 54.3882 68.5832 55.077 68.6383 55.9861C68.721 56.8952 68.5557 57.639 68.1424 58.1625C67.7292 58.6859 67.2333 58.989 66.6548 59.0441L64.1754 59.2644L63.707 53.5342ZM64.9192 54.2781L65.2773 58.3553L66.1589 58.2727C66.7099 58.2176 67.068 57.9972 67.2884 57.584C67.5088 57.1707 67.5915 56.6748 67.5364 56.1238C67.4813 55.5178 67.316 55.0219 67.0129 54.6637C66.7099 54.3056 66.3242 54.1679 65.8008 54.1954L64.9192 54.2781Z" fill="white"/>
<path d="M68.9961 53.0662L72.7979 52.5703L72.9081 53.3968L70.2358 53.7274L70.4287 55.3528L72.9632 55.0222L73.0734 55.8487L70.5388 56.1793L70.7592 57.8046L73.404 57.4741L73.5142 58.3005L69.7124 58.7964L68.9961 53.0662Z" fill="white"/>
<path d="M73.3516 52.4819L74.4811 52.2891L75.3351 57.1377L77.9798 56.6694L78.1176 57.4958L74.3433 58.157L73.3516 52.4819Z" fill="white"/>
<path d="M77.7852 51.6542L78.9147 51.4062L80.1268 57.0263L78.9973 57.2742L77.7852 51.6542Z" fill="white"/>
<path d="M80.5672 51.0506L83.1017 55.0176L83.3221 50.3343L84.4516 50.0312L84.1211 56.0645L82.7161 56.4502L79.4102 51.3812L80.5672 51.0506Z" fill="white"/>
<path d="M84.7539 49.896L88.3904 48.6562L88.6659 49.4552L86.1314 50.3092L86.6548 51.8519L89.0516 51.0255L89.3271 51.8244L86.9303 52.6509L87.4537 54.1936L89.9882 53.3396L90.2637 54.1385L86.6548 55.3782L84.7539 49.896Z" fill="white"/>
<path d="M91.0909 53.7827L88.8594 48.4933L91.1184 47.5291C91.752 47.2536 92.2755 47.226 92.6887 47.3913C93.1295 47.5566 93.4325 47.8872 93.6529 48.3831C93.8182 48.7963 93.8733 49.1545 93.8182 49.4851C93.7631 49.8157 93.5978 50.0912 93.3223 50.284C93.5427 50.2289 93.7356 50.284 93.956 50.3942C94.1488 50.5044 94.3141 50.6697 94.4794 50.8901L95.3334 51.992L94.1764 52.4879L93.2948 51.4135C93.1019 51.1931 92.8816 51.0278 92.6061 51.0003C92.3306 50.9452 92.0551 50.9727 91.7796 51.1105L91.3388 51.3033L92.2204 53.3695L91.0909 53.7827ZM90.9807 50.5044L91.9449 50.0912C92.2755 49.9534 92.4683 49.7881 92.5785 49.5677C92.6887 49.3473 92.6887 49.0994 92.5785 48.8239C92.4683 48.5484 92.303 48.3831 92.0551 48.3005C91.8347 48.2178 91.5316 48.2454 91.2011 48.3831L90.2093 48.7963L90.9807 50.5044Z" fill="white"/>
<path d="M93.0195 46.7245L94.1215 46.146L96.353 47.6887L96.4356 44.9613L97.5376 44.3828L97.4274 48.5152L98.3916 50.4161L97.3723 50.9395L96.4081 49.0386L93.0195 46.7245Z" fill="white"/>
</svg>
